<?xml version="1.0" encoding="UTF-8"?>
<!DOCTYPE svg PUBLIC "-//W3C//DTD SVG 1.1//EN" "http://www.w3.org/Graphics/SVG/1.1/DTD/svg11.dtd">
<!-- Creator: CorelDRAW -->
<svg xmlns="http://www.w3.org/2000/svg" xml:space="preserve" width="6.82666in" height="6.82666in" style="shape-rendering:geometricPrecision; text-rendering:geometricPrecision; image-rendering:optimizeQuality; fill-rule:evenodd; clip-rule:evenodd"
viewBox="0 0 6.82666 6.82666"
 xmlns:xlink="http://www.w3.org/1999/xlink">
 <defs>
  <style type="text/css">
   <![CDATA[
    .fil0 {fill:#8BC34A}
    .fil1 {fill:#FFFFFE}
    .fil2 {fill:#FFFFFE;fill-rule:nonzero}
   ]]>
  </style>
 </defs>
 <g id="Layer_x0020_1">
  <metadata id="CorelCorpID_0Corel-Layer"/>
  <rect class="fil0" width="6.82666" height="6.82666" rx="0.853335" ry="0.853335"/>
  <g id="_215564432">
   <path id="_215564192" class="fil1" d="M2.39999 2.60695c0.443579,0 0.845177,0.179807 1.13588,0.470508 0.290701,0.290705 0.470508,0.692303 0.470508,1.13588 0,0.443575 -0.179807,0.845173 -0.470512,1.13587 -0.290701,0.290701 -0.692299,0.470508 -1.13588,0.470508 -0.443575,0 -0.845173,-0.179807 -1.13587,-0.470508 -0.290701,-0.290701 -0.470508,-0.692299 -0.470508,-1.13587 0,-0.443579 0.179807,-0.845177 0.470508,-1.13588 0.290701,-0.290701 0.692299,-0.470508 1.13587,-0.470508zm0.113071 0.533331c0,-0.0589094 -0.0477598,-0.106669 -0.106669,-0.106669 -0.0589094,0 -0.106669,0.0477598 -0.106669,0.106669l0 1.06666c0,0.0365039 0.0183465,0.0687205 0.046315,0.0879528l0.573236 0.464807c0.045563,0.0370472 0.112535,0.0301457 0.149583,-0.0154173 0.0370472,-0.045563 0.0301457,-0.112535 -0.0154173,-0.149583l-0.540378 -0.438161 0 -1.01626z"/>
   <path id="_215564600" class="fil2" d="M1.87306 2.58298l0 -3.14961e-005 0.00790157 -0.00252756 0.000492126 -0.00015748 0.000531496 -0.000165354c0.00610236,-0.00193307 0.0122205,-0.00382677 0.0183465,-0.00569291l0.00201969 -0.000614173c0.00631496,-0.00191339 0.0126457,-0.00379528 0.0189843,-0.00563386l0.000283465 -7.87402e-005c0.00637402,-0.00185039 0.0127598,-0.00366142 0.0191575,-0.00543701l0.00146063 -0.000405512c0.00633465,-0.00175197 0.0126732,-0.0034685 0.0190315,-0.00514567l0.00129921 -0.00034252c0.00611417,-0.00161024 0.0122402,-0.0031811 0.018374,-0.00472441l0.00190157 -0.000480315c0.00635039,-0.00159055 0.0127165,-0.00314173 0.0190866,-0.00466142l0.00112992 -0.000267717c0.00632677,-0.0015 0.0126693,-0.0029685 0.0190157,-0.00439764l0.00112992 -0.000255906c0.00653543,-0.0014685 0.0130787,-0.00289764 0.0196339,-0.0042874l0.000968504 -0.000204724c0.00633465,-0.00133858 0.0126732,-0.00264567 0.0190276,-0.00391339l0.00166535 -0.000330709c0.0065315,-0.00129921 0.0130748,-0.00255906 0.0196299,-0.00378346l0.000586614 -0.000110236c0.00657874,-0.00122441 0.0131693,-0.00240945 0.0197677,-0.00355906l0.00092126 -0.000161417c0.00667323,-0.00115748 0.0133583,-0.00227953 0.0200512,-0.00335827l0.000751969 -0.000122047c0.00648031,-0.00104331 0.0129685,-0.00205118 0.0194685,-0.00301969l0.00149213 -0.000220472c0.0064685,-0.00096063 0.0129449,-0.00188189 0.0194331,-0.00276772l0.00187795 -0.000255906c0.00651181,-0.00088189 0.0130236,-0.00172835 0.0195512,-0.00253543l0.00046063 -5.90551e-005c0.00675984,-0.000834646 0.0135276,-0.00162598 0.0203071,-0.00238189l0.00110236 -0.000122047c0.0065315,-0.000724409 0.0130669,-0.00140945 0.0196142,-0.00205906l0.00124409 -0.000125984c0.00661811,-0.000653543 0.0132441,-0.00126378 0.019878,-0.00183858l0.00164567 -0.000141732c0.0067126,-0.000574803 0.0134331,-0.00111417 0.0201614,-0.00161024l4.33071e-005 -3.93701e-006c0.00664961,-0.000492126 0.0133031,-0.000940945 0.0199646,-0.00135827l0.0024685 -0.000149606c0.00638976,-0.000389764 0.0127874,-0.000744094 0.0191929,-0.00106299l0.000708661 -3.93701e-005 0.000590551 -2.75591e-005c0.00674016,-0.000330709 0.0134843,-0.00061811 0.0202362,-0.000870079l0.000838583 -2.75591e-005c0.00693307,-0.000255906 0.013874,-0.000472441 0.0208228,-0.000645669l2.3622e-005 0 0.000295276 -7.87402e-006c0.00670079,-0.000165354 0.0134134,-0.000287402 0.020126,-0.000370079l0.00185039 -1.9685e-005c0.00679134,-7.87402e-005 0.0135866,-0.000125984 0.0203898,-0.000125984 0.455787,0 0.889067,0.179512 1.21131,0.501748 0.322236,0.32224 0.501748,0.75552 0.501748,1.21131 0,0.00690945 -4.33071e-005,0.013815 -0.000125984,0.0207165l-1.9685e-005 0.0015748c-8.66142e-005,0.00666535 -0.000204724,0.0133228 -0.000370079,0.0199764l-2.3622e-005 0.000874016c-0.000169291,0.00684252 -0.00038189,0.0136772 -0.000633858,0.0205079l-1.9685e-005 0.000590551c-0.000251969,0.00679921 -0.000543307,0.0135906 -0.000877953,0.020374l-4.72441e-005 0.000996063c-0.000330709,0.00667717 -0.000704724,0.0133504 -0.00111024,0.0200157l-3.93701e-005 0.000744094 -3.93701e-005 0.000590551c-0.000858268,0.0138346 -0.00187795,0.0276457 -0.00306693,0.0414213l-5.11811e-005 0.000606299c-0.00057874,0.00669685 -0.00120079,0.0133858 -0.00185827,0.0200669l-0.000129921 0.00130709c-0.000649606,0.00655512 -0.00133465,0.0131024 -0.00205906,0.0196417l-0.000153543 0.0013622c-0.000740157,0.00662598 -0.00151575,0.013248 -0.00233071,0.0198583l-9.44882e-005 0.00076378c-0.000814961,0.00659843 -0.00166929,0.013185 -0.00256299,0.0197677l-0.000106299 0.000787402 0 2.75591e-005 -0.000129921 0.000897638c-0.000874016,0.00640551 -0.00177953,0.0127992 -0.00272835,0.019189l-0.000279528 0.00185039c-0.000956693,0.00641732 -0.00195276,0.0128228 -0.00298031,0.0192244l-0.000169291 0.00105118c-0.00106299,0.00658661 -0.00216535,0.0131614 -0.00330315,0.0197283l-0.000137795 0.000783465c-0.00116142,0.00667323 -0.00235827,0.0133346 -0.00359843,0.0199843l-0.000114173 0.00061811c-0.00124409,0.00665748 -0.00252362,0.0133071 -0.00384646,0.0199449l-7.48031e-005 0.000393701 -0.000110236 0.000547244c-0.00132677,0.00664567 -0.00268898,0.0132677 -0.00409449,0.0198937l-5.90551e-005 0.000283465c-0.0013937,0.0065748 -0.00283071,0.0131457 -0.00430315,0.0196969l-0.00030315 0.00134646c-0.00295669,0.0131299 -0.0060748,0.0262165 -0.00933465,0.0392559l-0.000326772 0.00131102 -0.000425197 0.00170079 -1.1811e-005 0c-0.0183307,0.0726732 -0.0414016,0.143921 -0.0690236,0.213339l1.64108 0c0.110106,0 0.210138,-0.0449724 0.282583,-0.117417 0.0724449,-0.0724449 0.117417,-0.172476 0.117417,-0.282583l0 -2.15114 -0.213339 0 -3.94666 0 -0.213339 0 0 0.372291c0.0691063,-0.0331299 0.140362,-0.0615709 0.213339,-0.085122zm2.4184 1.0858l0 -0.415181c0,-0.027878 0.0226063,-0.0504843 0.0504882,-0.0504843l0.403882 0c0.0278819,0 0.0504882,0.0226063 0.0504882,0.0504843l0 0.415181c0,0.0278819 -0.0226063,0.0504882 -0.0504882,0.0504882l-0.403882 0c-0.0278819,0 -0.0504882,-0.0226063 -0.0504882,-0.0504882zm0.0504882 0.179677l0.403882 0c0.0278819,0 0.0504882,0.0226063 0.0504882,0.0504843l0 0.415181c0,0.027878 -0.0226063,0.0504843 -0.0504882,0.0504843l-0.403882 0c-0.0278819,0 -0.0504882,-0.0226063 -0.0504882,-0.0504843l0 -0.415181c0,-0.027878 0.0226063,-0.0504843 0.0504882,-0.0504843zm0 -1.29069l0.403882 0c0.0278819,0 0.0504882,0.0226063 0.0504882,0.0504882l0 0.415177c0,0.0278819 -0.0226063,0.0504882 -0.0504882,0.0504882l-0.403882 0c-0.0278819,0 -0.0504882,-0.0226063 -0.0504882,-0.0504882l0 -0.415177c0,-0.0278819 0.0226063,-0.0504882 0.0504882,-0.0504882zm0.747346 1.1615c-0.0278819,0 -0.0504882,-0.0226063 -0.0504882,-0.0504882l0 -0.415181c0,-0.027878 0.0226063,-0.0504843 0.0504882,-0.0504843l0.403882 0c0.0278819,0 0.0504882,0.0226063 0.0504882,0.0504843l0 0.415181c0,0.0278819 -0.0226063,0.0504882 -0.0504882,0.0504882l-0.403882 0zm0 0.129189l0.403882 0c0.0278819,0 0.0504882,0.0226063 0.0504882,0.0504843l0 0.415181c0,0.027878 -0.0226063,0.0504843 -0.0504882,0.0504843l-0.403882 0c-0.0278819,0 -0.0504882,-0.0226063 -0.0504882,-0.0504843l0 -0.415181c0,-0.027878 0.0226063,-0.0504843 0.0504882,-0.0504843zm0 -1.29069l0.403882 0c0.0278819,0 0.0504882,0.0226063 0.0504882,0.0504882l0 0.415177c0,0.0278819 -0.0226063,0.0504882 -0.0504882,0.0504882l-0.403882 0c-0.0278819,0 -0.0504882,-0.0226063 -0.0504882,-0.0504882l0 -0.415177c0,-0.0278819 0.0226063,-0.0504882 0.0504882,-0.0504882zm0.943764 -0.368626l0 -0.614413c0,-0.110106 -0.0449724,-0.210138 -0.117417,-0.282583 -0.0724449,-0.0724449 -0.172476,-0.117417 -0.282583,-0.117417l-0.186673 0 0 0.365547c0,0.117783 -0.0955512,0.213335 -0.213335,0.213335 -0.117783,0 -0.213335,-0.0955512 -0.213335,-0.213335l0 -0.365547 -0.497772 0 0 0.365547c0,0.117783 -0.0955512,0.213335 -0.213335,0.213335 -0.117783,0 -0.213335,-0.0955512 -0.213335,-0.213335l0 -0.365547 -0.497772 0 0 0.365547c0,0.117783 -0.0955512,0.213335 -0.213335,0.213335 -0.117783,0 -0.213335,-0.0955512 -0.213335,-0.213335l0 -0.365547 -0.497772 0 0 0.365547c0,0.117783 -0.0955512,0.213335 -0.213335,0.213335 -0.117783,0 -0.213335,-0.0955512 -0.213335,-0.213335l0 -0.365547 -0.186669 0c-0.110106,0 -0.210138,0.0449724 -0.282583,0.117417 -0.0724449,0.0724449 -0.117417,0.172476 -0.117417,0.282583l0 0.614413 4.37333 0z"/>
   <path id="_215564480" class="fil2" d="M2.56639 1.00694c0,-0.0589094 -0.0477598,-0.106669 -0.106669,-0.106669 -0.0589094,0 -0.106669,0.0477598 -0.106669,0.106669l0 0.533335c0,0.0589094 0.0477598,0.106669 0.106669,0.106669 0.0589094,0 0.106669,-0.0477598 0.106669,-0.106669l0 -0.533335zm2.77332 0c0,-0.0589094 -0.0477598,-0.106669 -0.106669,-0.106669 -0.0589094,0 -0.106669,0.0477598 -0.106669,0.106669l0 0.533335c0,0.0589094 0.0477598,0.106669 0.106669,0.106669 0.0589094,0 0.106669,-0.0477598 0.106669,-0.106669l0 -0.533335zm-0.924441 0c0,-0.0589094 -0.0477598,-0.106669 -0.106669,-0.106669 -0.0589094,0 -0.106669,0.0477598 -0.106669,0.106669l0 0.533335c0,0.0589094 0.0477598,0.106669 0.106669,0.106669 0.0589094,0 0.106669,-0.0477598 0.106669,-0.106669l0 -0.533335zm-0.924441 0c0,-0.0589094 -0.0477598,-0.106669 -0.106669,-0.106669 -0.0589094,0 -0.106669,0.0477598 -0.106669,0.106669l0 0.533335c0,0.0589094 0.0477598,0.106669 0.106669,0.106669 0.0589094,0 0.106669,-0.0477598 0.106669,-0.106669l0 -0.533335z"/>
  </g>
 </g>
</svg>
